<?xml version="1.0" encoding="UTF-8"?>
<svg xmlns="http://www.w3.org/2000/svg" version="1.1" viewBox="2 2 68 68">
	<defs>
		<style>
			.mouth, .eye {
				stroke: #303030;
				stroke-width: 3;
				fill: none;
			}
			.head {
				stroke: #303030;
				stroke-width: 3;
			}
		</style>
	</defs>
	<g>
		<g id="Layer_1">
			<g class="face1">
				<polygon class="head" points="45 27 36 45 45 45 45 63 45 72 72 72 72 63 72 0 45 0 45 27" fill="#f1bad5" />
				<path class="mouth" d="M45,63c9,0,9-9,9-9"/>
				<path class="eye" d="M54,22.5v4.5-9,4.5Z"/>
			</g>
			<g class="face2">
				<polygon class="head" points="27 27 36 45 27 45 27 72 18 72 18 72 0 72 0 0 27 0 27 27" fill="#fed9b3" />
				<path class="mouth" d="M18,22.5v4.5-9,4.5Z"/>
				<path class="eye" d="M27,63c-9,0-9-9-9-9"/>
			</g>
		</g>
	</g>
</svg>