<?xml version="1.0" encoding="UTF-8"?>
<svg xmlns="http://www.w3.org/2000/svg" version="1.1" viewBox="2 2 68 68">
	<defs>
		<style>
			.mouth, .eye {
				stroke: #303030;
				stroke-width: 3;
				fill: none;
			}
			.head {
				stroke: #303030;
				stroke-width: 3;
			}
		</style>
	</defs>
	<!-- Generator: Adobe Illustrator 28.6.0, SVG Export Plug-In . SVG Version: 1.2.0 Build 709)  -->
	<g>
		<g id="Layer_1">
			<g class="face1">
				<polygon class="head" points="54 27 45 45 54 45 54 63 54 72 72 72 72 63 72 0 54 0 54 27" fill="#f1bad5"/>
				<path class="mouth" d="M54,63c9,0,9-9,9-9" />
				<path class="eye" d="M63,22.5v4.5-9,4.5Z"/>
			</g>
			<g class="face2">
				<polygon class="head" points="18 27 27 45 18 45 18 72 9 72 9 72 0 72.05 0 0 18 0 18 27" fill="#fed9b3"/>
				<path class="mouth" d="M9,22.5v4.5-9,4.5Z"/>
				<path class="eye" d="M18,63c-9,0-9-9-9-9"/>
			</g>
		</g>
	</g>
</svg>