<svg width="512" height="512" xmlns="http://www.w3.org/2000/svg" viewBox="0 0 32 32" fill-rule="evenodd" clip-rule="evenodd" style="background-color:hsl(200,100%,50%)">

	<path d="m 22.5 17.75 h-13.035c-.936-.831-1.51-2.078-1.508-3.352.001-.762.231-1.487.523-2.031 2.454 2.359 8.747 2.39 10.486 2.383-3.288-.454-11.179-1.926-9-7 .899-2.094 2.768-3.28 3.996-4-.206 1.539.008 2.713 1.487 3.758 2.854 2.046 8.53 2.48 8.508 6.885-.007 1.422-.717 2.763-1.457 3.357z" fill="white" stroke="hsl(200, 100%, 66%)" stroke-width="1.25" />

	<path d="M 21.5 23 h -1.495 l -1 5 h -6l -1 -5 h -1.296 l -.563 -4 h 11.859 l -.505 4 z" fill="hsl(35, 100%, 75%)" stroke="hsl(35, 100%, 75%)" stroke-width="1.25" />
</svg>