<svg xmlns="http://www.w3.org/2000/svg" viewBox="0 0 512 512">	
	<defs>
		<style>
			#big-star {
				fill: white;
				stroke: blue;
				stroke-width: 30;
			}

			#medium-star {
				fill: white;
				stroke: gold;
				stroke-width: 20;
			}

			#medium-star2 {
				fill: yellow;
				stroke: orange;
				stroke-width: 30;
			}

			#medium-star3 {
				fill: white;
				stroke: teal;
				stroke-width: 20;
			}
			
			#little-star {
				fill: white;
				stroke: rgba(255, 255, 255, 0.5);
				stroke-width: 5;
			}

			#little-star2 {
				fill: orange;
				stroke: orangered;
				stroke-width: 30;
			}
		</style>

		<g id="big-star">
			<path transform="scale(0.05)" d="M126.6,10.4c-0.4,0.2-1.2,4.8-2.4,13.4c-3.3,25.3-5.9,39-9.8,50.5c-6,17.9-14.9,28.6-29.9,36c-12.1,6-28.5,9.7-60.7,13.9C10.9,126,10,126.2,10,128c0,1.8,0.9,2.1,10.1,3.2c48.2,6.1,66.4,11.8,79.6,25c12.9,12.9,18.6,30.6,24.5,75.9c1.7,12.9,1.9,13.8,3.7,13.8s2.1-0.9,3.5-12.1c6-46.8,11.7-64.6,24.8-77.6c13.2-13.2,31.4-18.9,79.6-25c9.2-1.2,10.1-1.5,10.1-3.2c0-1.8-0.9-2-13.8-3.7c-25-3.2-38.4-5.9-49.6-9.5c-18.5-6-29.3-14.8-36.7-29.7c-6.3-12.7-9.9-28.5-14.4-62.9c-1-7.5-1.7-11.4-2.1-11.7C128.5,9.9,127.5,9.9,126.6,10.4z" />
			<animate id="big-twinkle"
				attributeName="opacity"
				values="0.5;1;0.5"
				begin="0s;big-twinkle.end+2s"
				dur="0.5s" />
		</g>
		<g id="medium-star">
			<path transform="scale(0.03)" d="M126.6,10.4c-0.4,0.2-1.2,4.8-2.4,13.4c-3.3,25.3-5.9,39-9.8,50.5c-6,17.9-14.9,28.6-29.9,36c-12.1,6-28.5,9.7-60.7,13.9C10.9,126,10,126.2,10,128c0,1.8,0.9,2.1,10.1,3.2c48.2,6.1,66.4,11.8,79.6,25c12.9,12.9,18.6,30.6,24.5,75.9c1.7,12.9,1.9,13.8,3.7,13.8s2.1-0.9,3.5-12.1c6-46.8,11.7-64.6,24.8-77.6c13.2-13.2,31.4-18.9,79.6-25c9.2-1.2,10.1-1.5,10.1-3.2c0-1.8-0.9-2-13.8-3.7c-25-3.2-38.4-5.9-49.6-9.5c-18.5-6-29.3-14.8-36.7-29.7c-6.3-12.7-9.9-28.5-14.4-62.9c-1-7.5-1.7-11.4-2.1-11.7C128.5,9.9,127.5,9.9,126.6,10.4z" />
			<animate id="medium-twinkle"
				attributeName="opacity"
				values="0.5;1;0.5"
				begin="0.5s;medium-twinkle.end+1s"
				dur="0.5s" />
		</g>
		<g id="medium-star2">
			<path transform="scale(0.035)" d="M126.6,10.4c-0.4,0.2-1.2,4.8-2.4,13.4c-3.3,25.3-5.9,39-9.8,50.5c-6,17.9-14.9,28.6-29.9,36c-12.1,6-28.5,9.7-60.7,13.9C10.9,126,10,126.2,10,128c0,1.8,0.9,2.1,10.1,3.2c48.2,6.1,66.4,11.8,79.6,25c12.9,12.9,18.6,30.6,24.5,75.9c1.7,12.9,1.9,13.8,3.7,13.8s2.1-0.9,3.5-12.1c6-46.8,11.7-64.6,24.8-77.6c13.2-13.2,31.4-18.9,79.6-25c9.2-1.2,10.1-1.5,10.1-3.2c0-1.8-0.9-2-13.8-3.7c-25-3.2-38.4-5.9-49.6-9.5c-18.5-6-29.3-14.8-36.7-29.7c-6.3-12.7-9.9-28.5-14.4-62.9c-1-7.5-1.7-11.4-2.1-11.7C128.5,9.9,127.5,9.9,126.6,10.4z" />
			<animate id="medium-twinkle2"
				attributeName="opacity"
				values="0.5;1;0.5"
				begin="1s;medium-twinkle2.end+2.5s"
				dur="0.25s" />
		</g>
		<g id="medium-star3">
			<path transform="scale(0.035)" d="M126.6,10.4c-0.4,0.2-1.2,4.8-2.4,13.4c-3.3,25.3-5.9,39-9.8,50.5c-6,17.9-14.9,28.6-29.9,36c-12.1,6-28.5,9.7-60.7,13.9C10.9,126,10,126.2,10,128c0,1.8,0.9,2.1,10.1,3.2c48.2,6.1,66.4,11.8,79.6,25c12.9,12.9,18.6,30.6,24.5,75.9c1.7,12.9,1.9,13.8,3.7,13.8s2.1-0.9,3.5-12.1c6-46.8,11.7-64.6,24.8-77.6c13.2-13.2,31.4-18.9,79.6-25c9.2-1.2,10.1-1.5,10.1-3.2c0-1.8-0.9-2-13.8-3.7c-25-3.2-38.4-5.9-49.6-9.5c-18.5-6-29.3-14.8-36.7-29.7c-6.3-12.7-9.9-28.5-14.4-62.9c-1-7.5-1.7-11.4-2.1-11.7C128.5,9.9,127.5,9.9,126.6,10.4z" />
			<animate id="medium-twinkle2"
				attributeName="opacity"
				values="0.5;1;0.5"
				begin="1.5s;medium-twinkle2.end+3s"
				dur="0.25s" />
		</g>
		<g id="little-star">
			<path transform="scale(0.025)" d="M126.6,10.4c-0.4,0.2-1.2,4.8-2.4,13.4c-3.3,25.3-5.9,39-9.8,50.5c-6,17.9-14.9,28.6-29.9,36c-12.1,6-28.5,9.7-60.7,13.9C10.9,126,10,126.2,10,128c0,1.8,0.9,2.1,10.1,3.2c48.2,6.1,66.4,11.8,79.6,25c12.9,12.9,18.6,30.6,24.5,75.9c1.7,12.9,1.9,13.8,3.7,13.8s2.1-0.9,3.5-12.1c6-46.8,11.7-64.6,24.8-77.6c13.2-13.2,31.4-18.9,79.6-25c9.2-1.2,10.1-1.5,10.1-3.2c0-1.8-0.9-2-13.8-3.7c-25-3.2-38.4-5.9-49.6-9.5c-18.5-6-29.3-14.8-36.7-29.7c-6.3-12.7-9.9-28.5-14.4-62.9c-1-7.5-1.7-11.4-2.1-11.7C128.5,9.9,127.5,9.9,126.6,10.4z" />
		</g>
		<g id="little-star2">
			<path transform="scale(0.025)" d="M126.6,10.4c-0.4,0.2-1.2,4.8-2.4,13.4c-3.3,25.3-5.9,39-9.8,50.5c-6,17.9-14.9,28.6-29.9,36c-12.1,6-28.5,9.7-60.7,13.9C10.9,126,10,126.2,10,128c0,1.8,0.9,2.1,10.1,3.2c48.2,6.1,66.4,11.8,79.6,25c12.9,12.9,18.6,30.6,24.5,75.9c1.7,12.9,1.9,13.8,3.7,13.8s2.1-0.9,3.5-12.1c6-46.8,11.7-64.6,24.8-77.6c13.2-13.2,31.4-18.9,79.6-25c9.2-1.2,10.1-1.5,10.1-3.2c0-1.8-0.9-2-13.8-3.7c-25-3.2-38.4-5.9-49.6-9.5c-18.5-6-29.3-14.8-36.7-29.7c-6.3-12.7-9.9-28.5-14.4-62.9c-1-7.5-1.7-11.4-2.1-11.7C128.5,9.9,127.5,9.9,126.6,10.4z" />
		</g>
	</defs>

	<use x="50" y="25" href="#big-star"></use>
	<use x="100" y="150" href="#medium-star"></use>
	<use x="300" y="400" href="#medium-star"></use>
	<use x="450" y="450" href="#medium-star"></use>
	<use x="475" y="200" href="#medium-star2"></use>
	<use x="50" y="175" href="#medium-star3"></use>
	<use x="450" y="100" href="#medium-star3"></use>
	<use x="400" y="150" href="#little-star"></use>
	<use x="75" y="100" href="#little-star"></use>
	<use x="400" y="300" href="#little-star"></use>
	<use x="100" y="450" href="#little-star"></use>
	<use x="255" y="255" href="#little-star"></use>
	<use x="450" y="250" href="#little-star"></use>
	<use x="50" y="250" href="#little-star"></use>
	<use x="200" y="400" href="#little-star"></use>
	<use x="150" y="50" href="#little-star"></use>
	<use x="300" y="25" href="#little-star"></use>
	<use x="50" y="350" href="#little-star"></use>
	<use x="250" y="475" href="#little-star"></use>
	<use x="425" y="325" href="#little-star"></use>
	<use x="350" y="125" href="#little-star"></use>
	<use x="375" y="75" href="#little-star"></use>
	<use x="150" y="275" href="#little-star2"></use>
</svg>