<svg xmlns="http://www.w3.org/2000/svg" viewBox="0 0 512 512">
	<defs>
		<style>
			#user {
				stroke: white;
				stroke-width: 20;
				stroke-linejoin: round;
			}
			
			#map .outline {
				fill: white;
			}
		</style>
	</defs>

	<rect width="480" height="480" x="16" y="16" rx="128" ry="128" fill="hsl(-10, 100%, 66%)" stroke="hsl(-10, 100%, 60%)" stroke-width="16" />
	
	<g transform="translate(256, 256) scale(0.9) translate(-256, -256)">

		<g id="film" transform="translate(264 256) scale(1.1 0.9) rotate(90) translate(-256 -256)">
			<g transform="scale(14.25)">
				<path d="M29 11h6v14h-6zM1 11h6v14H1zm8 0h18v14H9z" fill="#BBDDF5"/>
				<path fill="#231F20" d="M35 11V6H1v5h6v14H1v5h34v-5h-6V11h6zm-8 14H9V11h18v14z"/>
				<path fill="#F5F8FA" d="M31 7h2v3h-2zm-4 0h2v3h-2zm-4 0h2v3h-2zm-4 0h2v3h-2zm-4 0h2v3h-2zm-4 0h2v3h-2zM7 7h2v3H7zM3 7h2v3H3zm28 19h2v3h-2zm-4 0h2v3h-2zm-4 0h2v3h-2zm-4 0h2v3h-2zm-4 0h2v3h-2zm-4 0h2v3h-2zm-4 0h2v3H7zm-4 0h2v3H3z"/>
				<path fill="#88C9F9" d="M29 25V11h1v14zM9 25V11h1v14z"/>
			</g>
		</g>

		<g id="user">
			<g transform="translate(50, 50)">
				<path d="M391.113, 426.667H35.554v-88.892c0-22.746, 8.678-45.495, 26.039-62.848 c17.353-17.357, 40.102-26.039, 62.848-26.039h177.783c22.75, 0, 45.495, 8.678, 62.852, 26.039 c17.353, 17.353, 26.035, 40.102, 26.035, 62.848V426.667z"/>
				<circle cx="215" cy="135" r="110"/>
			</g>
		</g>
	</g>
</svg>