<?xml version="1.0" encoding="iso-8859-1"?>
<svg height="512" width="512" xmlns="http://www.w3.org/2000/svg" xmlns:xlink="http://www.w3.org/1999/xlink" viewBox="0 0 512 512">
	<g style="stroke:grey; stroke-width:15">
		<path d="M 50 200 L 256 512 Z" />
		<path d="M 150 200 L 256 512 Z" />
		<path d="M 256 200 L 256 512 Z" />
		<path d="M 360 200 L 256 512 Z" />
		<path d="M 460 200 L 256 512 Z" />
	</g>
	<g id="gores" style="fill:hsl(350, 100%, 60%)">
		<path d="M256.001, 0C142.171, 0, 49.398, 90.088, 45.05, 202.854h0.101c14.094 -12.835, 32.828 -20.66, 53.393 -20.66 c20.131, 0, 38.498, 7.513, 52.485, 19.871c13.988 -12.358, 32.355 -19.871, 52.486 -19.871s38.498, 7.513, 52.485, 19.871l0, 0l0, 0 c13.988 -12.358, 32.355 -19.871, 52.485 -19.871c20.131, 0, 38.498, 7.513, 52.486, 19.871c13.988 -12.358, 32.354 -19.871, 52.485 -19.871 c20.563, 0, 39.299, 7.826, 53.393, 20.66h0.101C462.603, 90.088, 369.83, 0, 256.001, 0z"/>
	</g>
	<g id="gores2" style="fill:white">
		<path d="M150.564, 201.67c0.153, 0.134, 0.313, 0.259, 0.465, 0.393c13.988 -12.358, 32.355 -19.871, 52.485 -19.871 c20.131, 0, 38.498, 7.513, 52.486, 19.871V0C199.344, 0, 153.128, 144.737, 150.564, 201.67z"/>
		<path d="M256.001, 0c113.83, 0, 206.603, 90.088, 210.95, 202.854h -0.101 c -14.094 -12.835 -32.828 -20.66 -53.393 -20.66c -19.912, 0 -38.091, 7.36 -52.021, 19.477C358.873, 144.737, 312.656, 0, 256.001, 0z"/>
	</g>
</svg>