<svg
	viewBox="-10 -10 230 230"
	xmlns="http://www.w3.org/2000/svg">
	<style>
		line {
			stroke-width: 3;
			stroke: white;
		}
		circle {
			fill: white
		}
	</style>
	<circle
		r="5"
		transform="matrix(0.55401,0.832509,-0.832509,0.55401,105.3938,-19.02519)"
		cx="10.601877"
		cy="82.666405" />
  <circle
		r="5"
		transform="matrix(0.55401,0.832509,-0.832509,0.55401,125.7086,-7.699209)"
		cx="31.285475"
		cy="72.028862" />
  <line
		y2="58.250996"
		x2="83.076385"
		y1="35.599026"
		x1="42.446812" />
  <circle
		r="5"
		transform="matrix(0.55401,0.832509,-0.832509,0.55401,131.1884,6.290764)"
		cx="45.968147"
		cy="75.217445" />
  <line
		y2="86.230934"
		x2="94.036041"
		y1="58.250996"
		x1="83.076385" />
  <circle
		r="5"
		transform="matrix(0.55401,0.832509,-0.832509,0.55401,139.4362,23.22179)"
		cx="64.632736"
		cy="77.731079" />
  <line
		y2="120.09299"
		x2="110.53156"
		y1="86.230934"
		x1="94.036041" />
  <circle
		r="5"
		transform="matrix(0.55401,0.832509,-0.832509,0.55401,132.259,37.29147)"
		cx="72.369659"
		cy="91.500893" />
  <line
		y2="148.23236"
		x2="96.177223"
		y1="120.09299"
		x1="110.53156" />
  <circle
		r="5"
		transform="matrix(0.55401,0.832509,-0.832509,0.55401,152.7324,55.78768)"
		cx="99.110443"
		cy="84.703644" />
  <line
		y2="185.22478"
		x2="137.12411"
		y1="148.23236"
		x1="96.177223" />
  <circle
		r="5"
		transform="matrix(0.55401,0.832509,-0.832509,0.55401,167.9453,44.87495)"
		cx="98.453568"
		cy="65.993019" />
  <line
		y2="163.39931"
		x2="167.54984"
		y1="185.22478"
		x1="137.12411" />
  <line
		y2="120.09299"
		x2="110.53156"
		y1="163.39931"
		x1="167.54984" />
</svg>