<?xml version="1.0" encoding="UTF-8"?>
<svg xmlns="http://www.w3.org/2000/svg" version="1.1" viewBox="0 0 800 800">
  <defs>
    <style>
      .cls-1 {
        fill: #416fbf;
      }

      .cls-2, .cls-3 {
        fill: #fff;
      }

      .cls-3 {
        stroke: #fff;
        stroke-miterlimit: 10;
      }

      .cls-4 {
        fill: #ff5757;
      }
    </style>
  </defs>
  <!-- Generator: Adobe Illustrator 28.6.0, SVG Export Plug-In . SVG Version: 1.2.0 Build 709)  -->
  <g>
    <g id="Layer_1">
      <g id="Layer_1-2" data-name="Layer_1">
        <g id="Layer_1-2">
          <g id="Layer_1-2-2" data-name="Layer_1-2">
            <g>
              <path class="cls-2" d="M311.1,422.2c-73.6,0-133.3,59.7-133.3,133.3s59.7,133.3,133.3,133.3,133.3-59.7,133.3-133.3-59.7-133.3-133.3-133.3h0ZM311.1,644.4c-49.1,0-88.9-39.8-88.9-88.9s39.8-88.9,88.9-88.9,88.9,39.8,88.9,88.9-39.8,88.9-88.9,88.9Z"/>
              <path class="cls-2" d="M39.6,311.6v.4C17.4,317,0,354.2,0,400s17.4,83,39.6,87.9v.5l637.8,177.2V134.8L39.6,311.6Z"/>
              <polygon class="cls-4" points="347.1 359.8 686.1 345.6 704.2 400.5 360.2 400.5 347.1 359.8"/>
              <path class="cls-4" d="M5,433.7c0,16.9,6.9,25.7,6.9,25.7l600.3,25.7-1.2-51.4H5"/>
              <polygon class="cls-4" points="368.2 280 612.2 243 599.2 301.6 368.2 317.4 368.2 280"/>
              <polygon class="cls-4" points="612.2 564 146 517.6 27.1 485.1 602.5 522 612.2 564"/>
              <polygon class="cls-4" points="688.9 666.7 376.2 584.3 224.7 543.1 657 610 688.9 666.7"/>
              <polygon class="cls-4" points="364 222.5 666.4 139.8 631 198.4 356.2 249 364 222.5"/>
              <ellipse class="cls-3" cx="688.9" cy="400" rx="111.1" ry="266.7"/>
              <path class="cls-1" d="M1.2,400.5h360.8c-1.8-128.5,48.3-190.8,48.3-190.8L40.8,312.1v.4c-22.2,4.9-39.6,42.1-39.6,87.9"/>
            </g>
          </g>
        </g>
      </g>
    </g>
  </g>
</svg>